<svg width="200" height="200" viewBox="0 0 200 200" xmlns="http://www.w3.org/2000/svg">
  <!-- Background Circle with Modern Gradient -->
  <defs>
    <linearGradient id="bg2Gradient" x1="0%" y1="0%" x2="100%" y2="100%">
      <stop offset="0%" style="stop-color:#FF6B9D;stop-opacity:1" />
      <stop offset="50%" style="stop-color:#FFA07A;stop-opacity:1" />
      <stop offset="100%" style="stop-color:#FFD93D;stop-opacity:1" />
    </linearGradient>
    <filter id="shadow">
      <feDropShadow dx="0" dy="2" stdDeviation="3" flood-opacity="0.3"/>
    </filter>
  </defs>

  <!-- Main Circle -->
  <circle cx="100" cy="100" r="95" fill="url(#bg2Gradient)"/>

  <!-- Running Person Silhouette (Modern & Dynamic) -->
  <g transform="translate(70, 60)">
    <!-- Head -->
    <circle cx="25" cy="15" r="10" fill="#FFFFFF"/>

    <!-- Body -->
    <path d="M 25 25 L 25 55" stroke="#FFFFFF" stroke-width="8" stroke-linecap="round"/>

    <!-- Arms (Dynamic running pose) -->
    <path d="M 25 30 L 10 45" stroke="#FFFFFF" stroke-width="6" stroke-linecap="round"/>
    <path d="M 25 30 L 40 25" stroke="#FFFFFF" stroke-width="6" stroke-linecap="round"/>

    <!-- Legs (Running stance) -->
    <path d="M 25 55 L 15 80" stroke="#FFFFFF" stroke-width="6" stroke-linecap="round"/>
    <path d="M 25 55 L 40 75" stroke="#FFFFFF" stroke-width="6" stroke-linecap="round"/>
  </g>

  <!-- Medical Cross in Circle -->
  <g transform="translate(130, 100)">
    <circle cx="0" cy="0" r="22" fill="#FFFFFF" filter="url(#shadow)"/>
    <rect x="-2.5" y="-12" width="5" height="24" fill="#FF6B9D" rx="2"/>
    <rect x="-12" y="-2.5" width="24" height="5" fill="#FF6B9D" rx="2"/>
  </g>

  <!-- Heart Rate Line -->
  <g transform="translate(40, 140)">
    <path d="M 0 0 L 20 0 L 25 -10 L 30 10 L 35 0 L 120 0" stroke="#FFFFFF" stroke-width="3" fill="none" stroke-linecap="round" stroke-linejoin="round"/>
  </g>
</svg>