<svg width="200" height="200" viewBox="0 0 200 200" xmlns="http://www.w3.org/2000/svg">
  <!-- Background Circle with Gradient -->
  <defs>
    <linearGradient id="bgGradient" x1="0%" y1="0%" x2="100%" y2="100%">
      <stop offset="0%" style="stop-color:#4A90E2;stop-opacity:1" />
      <stop offset="100%" style="stop-color:#7ED321;stop-opacity:1" />
    </linearGradient>
    <linearGradient id="iconGradient" x1="0%" y1="0%" x2="0%" y2="100%">
      <stop offset="0%" style="stop-color:#FFFFFF;stop-opacity:1" />
      <stop offset="100%" style="stop-color:#F0F8FF;stop-opacity:1" />
    </linearGradient>
  </defs>

  <!-- Main Circle -->
  <circle cx="100" cy="100" r="95" fill="url(#bgGradient)"/>

  <!-- Stethoscope Icon (Modern & Simple) -->
  <g transform="translate(60, 50)">
    <!-- Earpieces -->
    <path d="M 10 15 Q 5 10, 0 15" stroke="url(#iconGradient)" stroke-width="4" fill="none" stroke-linecap="round"/>
    <path d="M 70 15 Q 75 10, 80 15" stroke="url(#iconGradient)" stroke-width="4" fill="none" stroke-linecap="round"/>

    <!-- Tubes -->
    <path d="M 10 15 Q 20 40, 25 65" stroke="url(#iconGradient)" stroke-width="4" fill="none" stroke-linecap="round"/>
    <path d="M 70 15 Q 60 40, 55 65" stroke="url(#iconGradient)" stroke-width="4" fill="none" stroke-linecap="round"/>

    <!-- Chest piece -->
    <circle cx="40" cy="75" r="12" fill="none" stroke="url(#iconGradient)" stroke-width="4"/>
    <circle cx="40" cy="75" r="8" fill="url(#iconGradient)" opacity="0.6"/>
  </g>

  <!-- Health Plus Symbol -->
  <g transform="translate(100, 130)">
    <circle cx="0" cy="0" r="20" fill="#FFFFFF" opacity="0.95"/>
    <rect x="-2" y="-10" width="4" height="20" fill="#4A90E2" rx="1"/>
    <rect x="-10" y="-2" width="20" height="4" fill="#4A90E2" rx="1"/>
  </g>

  <!-- Upward Arrow (Health Progress) -->
  <g transform="translate(140, 80)">
    <path d="M 0 20 L 0 0 M -5 5 L 0 0 L 5 5" stroke="#FFFFFF" stroke-width="3" fill="none" stroke-linecap="round" stroke-linejoin="round"/>
  </g>
</svg>